# xmcd
#
# Track frame offsets: 
#        150
#        25445
#        51429
#        76366
#        96053
#        118691
#        139010
#        163849
#        189414
#        215961
#
# Disc length: 3196 seconds
#
# Revision: 0
# Processed by: cddbd v1.5.2PL0 Copyright (c) Steve Scherf et al.
# Submitted via: ExactAudioCopy v1.0b3
#
DISCID=910c7a0a
DTITLE=Manh Quynh, Mong Thi - Nho Mau Hoa Tim
DYEAR=1998
DGENRE=
TTITLE0=Manh Quynh - Tan cung noi nho
TTITLE1=Mong Thi - Hoa tim ngay xua
TTITLE2=Manh Quynh - Tai anh khong noi
TTITLE3=Mong Thi - Tinh cay va dat
TTITLE4=Manh Quynh - Nho mau hoa tim
TTITLE5=Mong Thi - Chin dong song ho hen
TTITLE6=Manh Quynh - De quen mot doi
TTITLE7=Mong Thi - Tinh xua
TTITLE8=Manh Quynh - Dem ve tuong nho
TTITLE9=Mong Thi - Tren dong song nho
EXTD=
EXTT0=
EXTT1=
EXTT2=
EXTT3=
EXTT4=
EXTT5=
EXTT6=
EXTT7=
EXTT8=
EXTT9=
PLAYORDER=
